<svg width="247" height="20" viewBox="0 0 247 20" fill="none" xmlns="http://www.w3.org/2000/svg">
<path fill-rule="evenodd" clip-rule="evenodd" d="M3.33333 9.58333C2.18274 9.58333 1.25 8.65059 1.25 7.5V3.33333C1.25 2.18274 2.18274 1.25 3.33333 1.25H7.5C8.65059 1.25 9.58333 2.18274 9.58333 3.33333V7.5C9.58333 8.65059 8.65059 9.58333 7.5 9.58333H3.33333ZM2.91667 7.5C2.91667 7.73012 3.10321 7.91667 3.33333 7.91667L7.5 7.91667C7.73012 7.91667 7.91667 7.73012 7.91667 7.5V3.33333C7.91667 3.10322 7.73012 2.91667 7.5 2.91667L3.33333 2.91667C3.10321 2.91667 2.91667 3.10322 2.91667 3.33333L2.91667 7.5Z" fill="black"/>
<path fill-rule="evenodd" clip-rule="evenodd" d="M1.25 16.6667C1.25 17.8173 2.18274 18.75 3.33333 18.75H7.5C8.65059 18.75 9.58333 17.8173 9.58333 16.6667V12.5C9.58333 11.3494 8.65059 10.4167 7.5 10.4167H3.33333C2.18274 10.4167 1.25 11.3494 1.25 12.5V16.6667ZM3.33333 17.0833C3.10321 17.0833 2.91667 16.8968 2.91667 16.6667L2.91667 12.5C2.91667 12.2699 3.10321 12.0833 3.33333 12.0833H7.5C7.73012 12.0833 7.91667 12.2699 7.91667 12.5V16.6667C7.91667 16.8968 7.73012 17.0833 7.5 17.0833H3.33333Z" fill="black"/>
<path fill-rule="evenodd" clip-rule="evenodd" d="M10.4167 16.6667C10.4167 17.8173 11.3494 18.75 12.5 18.75H16.6667C17.8173 18.75 18.75 17.8173 18.75 16.6667V12.5C18.75 11.3494 17.8173 10.4167 16.6667 10.4167H12.5C11.3494 10.4167 10.4167 11.3494 10.4167 12.5V16.6667ZM12.5 17.0833C12.2699 17.0833 12.0833 16.8968 12.0833 16.6667V12.5C12.0833 12.2699 12.2699 12.0833 12.5 12.0833H16.6667C16.8968 12.0833 17.0833 12.2699 17.0833 12.5V16.6667C17.0833 16.8968 16.8968 17.0833 16.6667 17.0833H12.5Z" fill="black"/>
<path fill-rule="evenodd" clip-rule="evenodd" d="M10.4167 7.5C10.4167 8.65059 11.3494 9.58333 12.5 9.58333H16.6667C17.8173 9.58333 18.75 8.65059 18.75 7.5V3.33333C18.75 2.18274 17.8173 1.25 16.6667 1.25H12.5C11.3494 1.25 10.4167 2.18274 10.4167 3.33333V7.5ZM12.5 7.91667C12.2699 7.91667 12.0833 7.73012 12.0833 7.5V3.33333C12.0833 3.10322 12.2699 2.91667 12.5 2.91667L16.6667 2.91667C16.8968 2.91667 17.0833 3.10322 17.0833 3.33333V7.5C17.0833 7.73012 16.8968 7.91667 16.6667 7.91667L12.5 7.91667Z" fill="black"/>
<path d="M36.4148 15H33.1186V4.81818H36.5192C37.5168 4.81818 38.3736 5.02202 39.0895 5.42969C39.8054 5.83404 40.3539 6.41572 40.7351 7.17472C41.1196 7.9304 41.3118 8.83688 41.3118 9.89418C41.3118 10.9548 41.1179 11.8662 40.7301 12.6286C40.3456 13.3909 39.7888 13.9775 39.0597 14.3885C38.3305 14.7962 37.4489 15 36.4148 15ZM34.6548 13.6577H36.3303C37.1058 13.6577 37.7505 13.5118 38.2642 13.2202C38.7779 12.9252 39.1624 12.4993 39.4176 11.9425C39.6728 11.3823 39.8004 10.6996 39.8004 9.89418C39.8004 9.09541 39.6728 8.41761 39.4176 7.8608C39.1657 7.30398 38.7895 6.88139 38.2891 6.59304C37.7886 6.30469 37.1671 6.16051 36.4247 6.16051H34.6548V13.6577ZM45.3251 15.169C44.8412 15.169 44.4037 15.0795 44.0126 14.9006C43.6215 14.7183 43.3116 14.4548 43.0829 14.1101C42.8575 13.7654 42.7449 13.3428 42.7449 12.8423C42.7449 12.4115 42.8277 12.0568 42.9934 11.7784C43.1592 11.5 43.3829 11.2796 43.6646 11.1172C43.9463 10.9548 44.2612 10.8321 44.6092 10.7493C44.9572 10.6664 45.3118 10.6035 45.6731 10.5604C46.1305 10.5073 46.5017 10.4643 46.7868 10.4311C47.0718 10.3946 47.2789 10.3366 47.4082 10.2571C47.5375 10.1776 47.6021 10.0483 47.6021 9.86932V9.83452C47.6021 9.40033 47.4795 9.06392 47.2342 8.82528C46.9922 8.58665 46.631 8.46733 46.1504 8.46733C45.6499 8.46733 45.2555 8.57836 44.9672 8.80043C44.6821 9.01918 44.4849 9.26278 44.3755 9.53125L42.9785 9.21307C43.1442 8.74905 43.3862 8.37453 43.7044 8.08949C44.0259 7.80114 44.3954 7.59233 44.813 7.46307C45.2306 7.33049 45.6698 7.2642 46.1305 7.2642C46.4354 7.2642 46.7586 7.30066 47.1 7.37358C47.4447 7.44318 47.7662 7.57244 48.0645 7.76136C48.3661 7.95028 48.613 8.22041 48.8052 8.57173C48.9975 8.91974 49.0936 9.37216 49.0936 9.92898V15H47.6419V13.956H47.5822C47.4861 14.1482 47.3419 14.3371 47.1497 14.5227C46.9574 14.7083 46.7105 14.8625 46.4089 14.9851C46.1073 15.1077 45.746 15.169 45.3251 15.169ZM45.6483 13.9759C46.0592 13.9759 46.4106 13.8946 46.7022 13.7322C46.9972 13.5698 47.2209 13.3577 47.3734 13.0959C47.5292 12.8307 47.6071 12.5473 47.6071 12.2457V11.2614C47.554 11.3144 47.4513 11.3641 47.2988 11.4105C47.1497 11.4536 46.979 11.4917 46.7868 11.5249C46.5945 11.5547 46.4073 11.5829 46.225 11.6094C46.0427 11.6326 45.8902 11.6525 45.7676 11.669C45.4792 11.7055 45.2157 11.7668 44.9771 11.853C44.7418 11.9392 44.5529 12.0634 44.4103 12.2259C44.2711 12.3849 44.2015 12.5971 44.2015 12.8622C44.2015 13.2301 44.3374 13.5085 44.6092 13.6974C44.881 13.883 45.2273 13.9759 45.6483 13.9759ZM56.7958 9.22798L55.4485 9.46662C55.3922 9.29427 55.3027 9.13021 55.18 8.97443C55.0607 8.81865 54.8983 8.69105 54.6928 8.59162C54.4873 8.49219 54.2305 8.44247 53.9222 8.44247C53.5013 8.44247 53.15 8.53693 52.8683 8.72585C52.5865 8.91146 52.4457 9.15175 52.4457 9.44673C52.4457 9.70194 52.5401 9.90743 52.729 10.0632C52.918 10.219 53.2229 10.3466 53.6438 10.446L54.8569 10.7244C55.5595 10.8868 56.0832 11.1371 56.4279 11.4751C56.7726 11.8132 56.945 12.2524 56.945 12.7926C56.945 13.25 56.8124 13.6577 56.5472 14.0156C56.2854 14.3703 55.9192 14.6487 55.4485 14.8509C54.9812 15.053 54.4393 15.1541 53.8228 15.1541C52.9677 15.1541 52.27 14.9718 51.7298 14.6072C51.1895 14.2393 50.8581 13.7173 50.7354 13.0412L52.1722 12.8224C52.2617 13.197 52.4457 13.4804 52.7241 13.6726C53.0025 13.8615 53.3654 13.956 53.8129 13.956C54.3001 13.956 54.6895 13.8549 54.9812 13.6527C55.2728 13.4472 55.4187 13.197 55.4187 12.902C55.4187 12.6634 55.3292 12.4628 55.1502 12.3004C54.9746 12.138 54.7044 12.0154 54.3398 11.9325L53.0472 11.6491C52.3346 11.4867 51.8076 11.2282 51.4663 10.8736C51.1282 10.5189 50.9592 10.0698 50.9592 9.52628C50.9592 9.07552 51.0851 8.68111 51.337 8.34304C51.5889 8.00497 51.9369 7.74148 52.381 7.55256C52.8252 7.36032 53.3339 7.2642 53.9073 7.2642C54.7326 7.2642 55.3822 7.44318 55.8562 7.80114C56.3301 8.15578 56.6433 8.63139 56.7958 9.22798ZM60.0659 10.4659V15H58.5794V4.81818H60.046V8.60653H60.1404C60.3194 8.19555 60.5929 7.86908 60.9608 7.62713C61.3287 7.38518 61.8092 7.2642 62.4025 7.2642C62.9262 7.2642 63.3836 7.37192 63.7747 7.58736C64.1691 7.80279 64.474 8.12429 64.6895 8.55185C64.9082 8.97609 65.0176 9.50639 65.0176 10.1428V15H63.5311V10.3217C63.5311 9.7616 63.3869 9.32741 63.0985 9.01918C62.8102 8.70762 62.4092 8.55185 61.8954 8.55185C61.5441 8.55185 61.2292 8.62642 60.9508 8.77557C60.6757 8.92472 60.4586 9.14347 60.2995 9.43182C60.1438 9.71686 60.0659 10.0616 60.0659 10.4659ZM67.1206 15V4.81818H68.6071V8.60156H68.6966C68.7827 8.44247 68.907 8.25852 69.0694 8.04972C69.2318 7.84091 69.4572 7.65862 69.7456 7.50284C70.0339 7.34375 70.4151 7.2642 70.889 7.2642C71.5055 7.2642 72.0557 7.41998 72.5396 7.73153C73.0235 8.04309 73.403 8.49219 73.6781 9.07884C73.9565 9.66548 74.0957 10.3714 74.0957 11.1967C74.0957 12.022 73.9582 12.7296 73.6831 13.3196C73.408 13.9062 73.0301 14.3587 72.5495 14.6768C72.069 14.9917 71.5204 15.1491 70.9039 15.1491C70.4399 15.1491 70.0604 15.0713 69.7654 14.9155C69.4738 14.7597 69.2451 14.5774 69.0794 14.3686C68.9136 14.1598 68.786 13.9742 68.6966 13.8118H68.5723V15H67.1206ZM68.5772 11.1818C68.5772 11.7187 68.6551 12.1894 68.8109 12.5938C68.9667 12.9981 69.1921 13.3146 69.487 13.5433C69.782 13.7687 70.1433 13.8814 70.5708 13.8814C71.015 13.8814 71.3862 13.7637 71.6845 13.5284C71.9828 13.2898 72.2082 12.9666 72.3606 12.5589C72.5164 12.1513 72.5943 11.6922 72.5943 11.1818C72.5943 10.678 72.5181 10.2256 72.3656 9.82457C72.2164 9.42353 71.9911 9.10701 71.6895 8.875C71.3912 8.64299 71.0183 8.52699 70.5708 8.52699C70.14 8.52699 69.7754 8.63802 69.4771 8.86009C69.1821 9.08215 68.9584 9.39205 68.8059 9.78977C68.6535 10.1875 68.5772 10.6515 68.5772 11.1818ZM78.9815 15.1541C78.2656 15.1541 77.6409 14.9901 77.1072 14.6619C76.5736 14.3338 76.1593 13.8748 75.8643 13.2848C75.5694 12.6948 75.4219 12.0054 75.4219 11.2166C75.4219 10.4245 75.5694 9.73177 75.8643 9.13849C76.1593 8.54522 76.5736 8.08452 77.1072 7.75639C77.6409 7.42827 78.2656 7.2642 78.9815 7.2642C79.6974 7.2642 80.3222 7.42827 80.8558 7.75639C81.3894 8.08452 81.8037 8.54522 82.0987 9.13849C82.3937 9.73177 82.5412 10.4245 82.5412 11.2166C82.5412 12.0054 82.3937 12.6948 82.0987 13.2848C81.8037 13.8748 81.3894 14.3338 80.8558 14.6619C80.3222 14.9901 79.6974 15.1541 78.9815 15.1541ZM78.9865 13.9062C79.4505 13.9062 79.835 13.7836 80.1399 13.5384C80.4448 13.2931 80.6702 12.9666 80.8161 12.5589C80.9652 12.1513 81.0398 11.7022 81.0398 11.2116C81.0398 10.7244 80.9652 10.277 80.8161 9.86932C80.6702 9.45833 80.4448 9.12855 80.1399 8.87997C79.835 8.63139 79.4505 8.5071 78.9865 8.5071C78.5192 8.5071 78.1314 8.63139 77.8232 8.87997C77.5182 9.12855 77.2912 9.45833 77.142 9.86932C76.9962 10.277 76.9233 10.7244 76.9233 11.2116C76.9233 11.7022 76.9962 12.1513 77.142 12.5589C77.2912 12.9666 77.5182 13.2931 77.8232 13.5384C78.1314 13.7836 78.5192 13.9062 78.9865 13.9062ZM86.4228 15.169C85.9389 15.169 85.5014 15.0795 85.1103 14.9006C84.7192 14.7183 84.4093 14.4548 84.1806 14.1101C83.9552 13.7654 83.8425 13.3428 83.8425 12.8423C83.8425 12.4115 83.9254 12.0568 84.0911 11.7784C84.2568 11.5 84.4805 11.2796 84.7623 11.1172C85.044 10.9548 85.3588 10.8321 85.7069 10.7493C86.0549 10.6664 86.4095 10.6035 86.7708 10.5604C87.2282 10.5073 87.5994 10.4643 87.8844 10.4311C88.1694 10.3946 88.3766 10.3366 88.5059 10.2571C88.6351 10.1776 88.6998 10.0483 88.6998 9.86932V9.83452C88.6998 9.40033 88.5771 9.06392 88.3319 8.82528C88.0899 8.58665 87.7286 8.46733 87.248 8.46733C86.7476 8.46733 86.3532 8.57836 86.0648 8.80043C85.7798 9.01918 85.5826 9.26278 85.4732 9.53125L84.0762 9.21307C84.2419 8.74905 84.4838 8.37453 84.802 8.08949C85.1235 7.80114 85.4931 7.59233 85.9107 7.46307C86.3283 7.33049 86.7675 7.2642 87.2282 7.2642C87.5331 7.2642 87.8562 7.30066 88.1976 7.37358C88.5423 7.44318 88.8638 7.57244 89.1621 7.76136C89.4637 7.95028 89.7106 8.22041 89.9029 8.57173C90.0951 8.91974 90.1912 9.37216 90.1912 9.92898V15H88.7395V13.956H88.6799C88.5837 14.1482 88.4396 14.3371 88.2473 14.5227C88.0551 14.7083 87.8082 14.8625 87.5066 14.9851C87.205 15.1077 86.8437 15.169 86.4228 15.169ZM86.7459 13.9759C87.1569 13.9759 87.5082 13.8946 87.7999 13.7322C88.0949 13.5698 88.3186 13.3577 88.4711 13.0959C88.6268 12.8307 88.7047 12.5473 88.7047 12.2457V11.2614C88.6517 11.3144 88.5489 11.3641 88.3965 11.4105C88.2473 11.4536 88.0766 11.4917 87.8844 11.5249C87.6922 11.5547 87.5049 11.5829 87.3226 11.6094C87.1403 11.6326 86.9879 11.6525 86.8652 11.669C86.5769 11.7055 86.3134 11.7668 86.0748 11.853C85.8394 11.9392 85.6505 12.0634 85.508 12.2259C85.3688 12.3849 85.2992 12.5971 85.2992 12.8622C85.2992 13.2301 85.4351 13.5085 85.7069 13.6974C85.9786 13.883 86.325 13.9759 86.7459 13.9759ZM92.1712 15V7.36364H93.608V8.5767H93.6875C93.8267 8.16572 94.072 7.84257 94.4233 7.60724C94.7779 7.36861 95.179 7.24929 95.6264 7.24929C95.7192 7.24929 95.8286 7.2526 95.9545 7.25923C96.0838 7.26586 96.1849 7.27415 96.2578 7.28409V8.70597C96.1982 8.68939 96.0921 8.67116 95.9396 8.65128C95.7872 8.62808 95.6347 8.61648 95.4822 8.61648C95.1309 8.61648 94.8177 8.69105 94.5426 8.8402C94.2708 8.98603 94.0554 9.18987 93.8963 9.4517C93.7372 9.71023 93.6577 10.0052 93.6577 10.3366V15H92.1712ZM100.129 15.1491C99.513 15.1491 98.9628 14.9917 98.4789 14.6768C97.9983 14.3587 97.6204 13.9062 97.3453 13.3196C97.0736 12.7296 96.9377 12.022 96.9377 11.1967C96.9377 10.3714 97.0752 9.66548 97.3503 9.07884C97.6287 8.49219 98.0099 8.04309 98.4938 7.73153C98.9777 7.41998 99.5262 7.2642 100.139 7.2642C100.613 7.2642 100.994 7.34375 101.283 7.50284C101.575 7.65862 101.8 7.84091 101.959 8.04972C102.121 8.25852 102.247 8.44247 102.337 8.60156H102.426V4.81818H103.913V15H102.461V13.8118H102.337C102.247 13.9742 102.118 14.1598 101.949 14.3686C101.783 14.5774 101.555 14.7597 101.263 14.9155C100.971 15.0713 100.593 15.1491 100.129 15.1491ZM100.458 13.8814C100.885 13.8814 101.246 13.7687 101.541 13.5433C101.84 13.3146 102.065 12.9981 102.218 12.5938C102.373 12.1894 102.451 11.7187 102.451 11.1818C102.451 10.6515 102.375 10.1875 102.222 9.78977C102.07 9.39205 101.846 9.08215 101.551 8.86009C101.256 8.63802 100.892 8.52699 100.458 8.52699C100.01 8.52699 99.6373 8.64299 99.339 8.875C99.0407 9.10701 98.8153 9.42353 98.6628 9.82457C98.5137 10.2256 98.4391 10.678 98.4391 11.1818C98.4391 11.6922 98.5153 12.1513 98.6678 12.5589C98.8203 12.9666 99.0456 13.2898 99.3439 13.5284C99.6455 13.7637 100.017 13.8814 100.458 13.8814Z" fill="#101928"/>
</svg>
