<svg width="73" height="72" viewBox="0 0 73 72" fill="none" xmlns="http://www.w3.org/2000/svg">
<path d="M36.5 30C31.5294 30 27.5 34.0294 27.5 39C27.5 43.9706 31.5294 48 36.5 48C41.4706 48 45.5 43.9706 45.5 39C45.5 34.0294 41.4706 30 36.5 30Z" fill="white"/>
<path fill-rule="evenodd" clip-rule="evenodd" d="M31.2279 10.5H41.7721C44.159 10.5 46.4482 11.4482 48.136 13.136L50.1937 15.1937C51.0556 16.0556 52.0835 16.7334 53.2152 17.1861L60.8425 20.237C64.2594 21.6038 66.5 24.9132 66.5 28.5933V52.5C66.5 57.4706 62.4706 61.5 57.5 61.5H15.5C10.5294 61.5 6.5 57.4706 6.5 52.5V28.5933C6.5 24.9132 8.74056 21.6038 12.1575 20.237L19.7848 17.1861C20.9165 16.7334 21.9444 16.0556 22.8063 15.1937L24.864 13.136C26.5518 11.4482 28.841 10.5 31.2279 10.5ZM21.5 39C21.5 30.7157 28.2157 24 36.5 24C44.7843 24 51.5 30.7157 51.5 39C51.5 47.2843 44.7843 54 36.5 54C28.2157 54 21.5 47.2843 21.5 39ZM48.043 27.577C49.2457 27.9779 50.1894 28.9216 50.5903 30.1244C50.9983 31.3484 52.7297 31.3484 53.1377 30.1244C53.5386 28.9216 54.4824 27.9779 55.6851 27.577C56.9091 27.169 56.9091 25.4376 55.6851 25.0296C54.4824 24.6287 53.5386 23.685 53.1377 22.4822C52.7297 21.2582 50.9983 21.2582 50.5903 22.4822C50.1894 23.685 49.2457 24.6287 48.043 25.0296C46.8189 25.4376 46.8189 27.169 48.043 27.577Z" fill="white"/>
</svg>
