<svg width="24" height="25" viewBox="0 0 24 25" fill="none" xmlns="http://www.w3.org/2000/svg">
<path fill-rule="evenodd" clip-rule="evenodd" d="M12 1.5C8.40056 1.5 5.20486 3.2299 3.1997 5.89942C1.81871 7.73797 1 10.0248 1 12.5C1 14.9752 1.81871 17.262 3.1997 19.1006C5.20486 21.7701 8.40056 23.5 12 23.5C15.5994 23.5 18.7951 21.7701 20.8003 19.1006C22.1813 17.262 23 14.9752 23 12.5C23 10.0248 22.1813 7.73797 20.8003 5.89942C18.7951 3.2299 15.5994 1.5 12 1.5ZM4.90148 7.4176C5.12565 7.39682 5.38969 7.37293 5.68444 7.34733C5.60258 8.56193 5.53095 9.99456 5.50782 11.5H3.05486C3.2194 10.0099 3.74743 8.63055 4.54856 7.45084C4.65102 7.44104 4.76929 7.42986 4.90148 7.4176ZM4.54856 17.5492C3.74743 16.3695 3.2194 14.9901 3.05486 13.5H5.50782C5.53095 15.0054 5.60258 16.4381 5.68444 17.6527C5.38969 17.6271 5.12565 17.6032 4.90148 17.5824C4.76929 17.5701 4.65102 17.559 4.54856 17.5492ZM7.50806 13.5C7.53297 15.0746 7.61241 16.5714 7.70023 17.8123C8.77446 17.8887 9.94229 17.9564 11 17.9852V13.5H7.50806ZM7.91935 20.3659C7.9254 20.4251 7.93118 20.4809 7.93664 20.5329C8.87517 21.0086 9.90816 21.3245 11 21.4451V19.9859C9.98757 19.9595 8.88779 19.8986 7.86654 19.8288C7.8846 20.0195 7.90151 20.1907 7.91673 20.3403C7.91761 20.3489 7.91848 20.3574 7.91935 20.3659ZM16.0634 20.5329C15.1248 21.0086 14.0918 21.3245 13 21.4451V19.9859C14.0124 19.9595 15.1122 19.8986 16.1335 19.8288C16.1154 20.0195 16.0985 20.1907 16.0833 20.3403C16.0763 20.4091 16.0696 20.4734 16.0634 20.5329ZM16.2998 17.8123C15.2255 17.8887 14.0577 17.9564 13 17.9852V13.5H16.4919C16.467 15.0746 16.3876 16.5714 16.2998 17.8123ZM16.2998 7.18766C16.3876 8.42861 16.467 9.92539 16.4919 11.5H13V7.01476C14.0577 7.0436 15.2255 7.11133 16.2998 7.18766ZM16.1335 5.17121C15.1122 5.10142 14.0124 5.04054 13 5.01407V3.55489C14.0918 3.67552 15.1248 3.99139 16.0634 4.46708C16.0696 4.52656 16.0763 4.59085 16.0833 4.65974C16.0985 4.80931 16.1154 4.98051 16.1335 5.17121ZM7.86654 5.17121C8.88779 5.10142 9.98757 5.04054 11 5.01407V3.55489C9.90816 3.67552 8.87517 3.99139 7.93664 4.46708C7.9304 4.52656 7.92375 4.59085 7.91673 4.65974C7.90151 4.80931 7.8846 4.98051 7.86654 5.17121ZM11 7.01476C9.94229 7.0436 8.77446 7.11133 7.70023 7.18766C7.61241 8.42861 7.53297 9.92539 7.50806 11.5H11V7.01476ZM19.0985 7.4176C18.8744 7.39682 18.6103 7.37293 18.3156 7.34733C18.3974 8.56193 18.4691 9.99456 18.4922 11.5H20.9451C20.7806 10.0099 20.2526 8.63055 19.4514 7.45084C19.349 7.44104 19.2307 7.42986 19.0985 7.4176ZM18.3156 17.6527C18.3974 16.4381 18.4691 15.0054 18.4922 13.5H20.9451C20.7806 14.9901 20.2526 16.3695 19.4514 17.5492C19.349 17.559 19.2307 17.5701 19.0985 17.5824C18.8744 17.6032 18.6103 17.6271 18.3156 17.6527Z" fill="#475367"/>
</svg>
