<svg width="20" height="20" viewBox="0 0 20 20" fill="none" xmlns="http://www.w3.org/2000/svg">
<path d="M5.87571 4.6972C5.55028 4.37177 5.02264 4.37177 4.6972 4.6972C4.37177 5.02264 4.37177 5.55028 4.6972 5.87571L8.82199 10.0005L4.6972 14.1253C4.37177 14.4507 4.37177 14.9784 4.6972 15.3038C5.02264 15.6292 5.55028 15.6292 5.87571 15.3038L10.0005 11.179L14.1253 15.3038C14.4507 15.6292 14.9784 15.6292 15.3038 15.3038C15.6292 14.9784 15.6292 14.4507 15.3038 14.1253L11.179 10.0005L15.3038 5.87571C15.6292 5.55028 15.6292 5.02264 15.3038 4.6972C14.9784 4.37177 14.4507 4.37177 14.1253 4.6972L10.0005 8.82199L5.87571 4.6972Z" fill="black"/>
</svg>
