<svg width="25" height="24" viewBox="0 0 25 24" fill="none" xmlns="http://www.w3.org/2000/svg">
<g id="icon / pencil-edit">
<g id="icon">
<path fill-rule="evenodd" clip-rule="evenodd" d="M21.0961 2.91033C19.7495 1.56374 17.5662 1.56374 16.2196 2.91033L7.69416 11.4358C7.08217 12.0478 6.68518 12.8418 6.56279 13.6985L6.31573 15.4279C6.12717 16.7478 7.25854 17.8792 8.57847 17.6906L10.3078 17.4436C11.1646 17.3212 11.9586 16.9242 12.5706 16.3122L21.0961 7.78676C22.4426 6.44017 22.4426 4.25692 21.0961 2.91033ZM17.8433 4.15085C18.407 3.76659 19.1818 3.82448 19.6818 4.32455C20.1819 4.82461 20.2398 5.59939 19.8555 6.16307L17.8433 4.15085ZM16.4112 5.54717L18.4592 7.59518L11.1564 14.898C10.8504 15.204 10.4534 15.4025 10.025 15.4637L8.29563 15.7108L8.54269 13.9814C8.60388 13.553 8.80238 13.156 9.10837 12.85L16.4112 5.54717Z" fill="#475367"/>
<path d="M6.5 2.00035C4.29086 2.00035 2.5 3.79121 2.5 6.00035V18.0003C2.5 20.2095 4.29086 22.0003 6.5 22.0003H18.5C20.7091 22.0003 22.5 20.2095 22.5 18.0003V12.0003C22.5 11.4481 22.0523 11.0003 21.5 11.0003C20.9477 11.0003 20.5 11.4481 20.5 12.0003V18.0003C20.5 19.1049 19.6046 20.0003 18.5 20.0003H6.5C5.39543 20.0003 4.5 19.1049 4.5 18.0003V6.00035C4.5 4.89578 5.39543 4.00035 6.5 4.00035H9.18421C9.7365 4.00035 10.1842 3.55263 10.1842 3.00035C10.1842 2.44806 9.7365 2.00035 9.18421 2.00035H6.5Z" fill="#475367"/>
</g>
</g>
</svg>
