<svg width="48" height="48" viewBox="0 0 48 48" fill="none" xmlns="http://www.w3.org/2000/svg">
<path fill-rule="evenodd" clip-rule="evenodd" d="M29.1543 5.83729C26.7749 2.05424 21.2235 2.05424 18.8441 5.83729L14.9864 11.9708C14.7042 12.4194 14.2516 12.7475 13.7203 12.8772L6.62721 14.6087C2.27171 15.672 0.510317 20.9235 3.43995 24.3592L8.1488 29.8814C8.49442 30.2867 8.66306 30.805 8.62505 31.3256L8.09903 38.5292C7.77091 43.0228 12.3074 46.2157 16.4415 44.5539L23.2095 41.8333C23.7154 41.6299 24.283 41.6299 24.7889 41.8333L31.5569 44.5539C35.691 46.2157 40.2275 43.0228 39.8994 38.5292L39.3734 31.3256C39.3354 30.805 39.504 30.2867 39.8496 29.8814L44.5585 24.3592C47.4881 20.9235 45.7267 15.672 41.3712 14.6087L34.2781 12.8772C33.7468 12.7475 33.2942 12.4194 33.0121 11.9708L29.1543 5.83729ZM22.2301 7.96693C23.0409 6.67769 24.9575 6.67769 25.7684 7.96693L29.6261 14.1004C30.4664 15.4364 31.7971 16.389 33.3295 16.7631L40.4226 18.4946C41.933 18.8633 42.4793 20.6327 41.5148 21.7638L36.8059 27.2861C35.7814 28.4875 35.269 30.0415 35.384 31.6169L35.91 38.8205C36.0169 40.2842 34.5117 41.4305 33.0488 40.8425L26.2808 38.1219C24.8175 37.5337 23.1809 37.5337 21.7176 38.1219L14.9496 40.8425C13.4867 41.4306 11.9815 40.2842 12.0884 38.8205L12.6144 31.6169C12.7295 30.0415 12.217 28.4875 11.1925 27.2861L6.48363 21.7638C5.51913 20.6327 6.06546 18.8633 7.5758 18.4946L14.6689 16.7631C16.2014 16.389 17.532 15.4364 18.3723 14.1004L22.2301 7.96693Z" fill="#475367"/>
</svg>
