<svg width="25" height="24" viewBox="0 0 25 24" fill="none" xmlns="http://www.w3.org/2000/svg">
<path fill-rule="evenodd" clip-rule="evenodd" d="M12.5 2C9.73858 2 7.5 4.23858 7.5 7C7.5 9.76142 9.73858 12 12.5 12C15.2614 12 17.5 9.76142 17.5 7C17.5 4.23858 15.2614 2 12.5 2ZM9.5 7C9.5 5.34315 10.8431 4 12.5 4C14.1569 4 15.5 5.34315 15.5 7C15.5 8.65685 14.1569 10 12.5 10C10.8431 10 9.5 8.65685 9.5 7Z" fill="#475367"/>
<path fill-rule="evenodd" clip-rule="evenodd" d="M12.5 23C10.9595 23 8.72982 22.6502 7.05543 21.9174C6.23343 21.5576 5.39745 21.0427 4.91175 20.2974C4.65632 19.9054 4.49483 19.4437 4.50013 18.9282C4.50537 18.4174 4.67344 17.9281 4.95591 17.4728C6.32532 15.2656 9.12679 13 12.5 13C15.8732 13 18.6747 15.2656 20.0441 17.4728C20.3266 17.9281 20.4946 18.4174 20.4999 18.9282C20.5052 19.4437 20.3437 19.9054 20.0882 20.2974C19.6025 21.0427 18.7666 21.5576 17.9446 21.9174C16.2702 22.6502 14.0405 23 12.5 23ZM6.65539 18.5272C6.52372 18.7394 6.50077 18.8757 6.50002 18.9487C6.49932 19.017 6.51686 19.0973 6.58736 19.2055C6.75354 19.4605 7.15707 19.7787 7.85732 20.0852C9.22744 20.6848 11.1732 21 12.5 21C13.8268 21 15.7726 20.6848 17.1427 20.0852C17.8429 19.7787 18.2465 19.4605 18.4126 19.2055C18.4831 19.0973 18.5007 19.017 18.5 18.9487C18.4992 18.8757 18.4763 18.7394 18.3446 18.5272C17.2225 16.7185 14.9843 15 12.5 15C10.0157 15 7.77754 16.7185 6.65539 18.5272Z" fill="#475367"/>
</svg>
