<svg width="14" height="17" viewBox="0 0 14 17" fill="none" xmlns="http://www.w3.org/2000/svg">
<path fill-rule="evenodd" clip-rule="evenodd" d="M6.99964 3.58331C4.92857 3.58331 3.24964 5.26224 3.24964 7.33331C3.24964 9.40437 4.92857 11.0833 6.99964 11.0833C9.07071 11.0833 10.7496 9.40437 10.7496 7.33331C10.7496 5.26224 9.07071 3.58331 6.99964 3.58331ZM4.91631 7.33331C4.91631 6.18271 5.84905 5.24997 6.99964 5.24997C8.15023 5.24997 9.08297 6.18271 9.08297 7.33331C9.08297 8.4839 8.15023 9.41664 6.99964 9.41664C5.84905 9.41664 4.91631 8.4839 4.91631 7.33331Z" fill="#2A2E33"/>
<path fill-rule="evenodd" clip-rule="evenodd" d="M3.50734 1.9933C5.62211 0.583452 8.37717 0.583452 10.4919 1.9933C13.351 3.89935 14.1537 7.74581 12.2956 10.6363L9.10259 15.6031C8.11849 17.1339 5.88078 17.1339 4.89669 15.6031L1.70372 10.6363C-0.154421 7.74582 0.648261 3.89935 3.50734 1.9933ZM4.43184 3.38005C5.98677 2.34342 8.01251 2.34342 9.56744 3.38005C11.6696 4.78152 12.2598 7.60973 10.8936 9.735L7.70062 14.7018C7.37259 15.2121 6.62669 15.2121 6.29866 14.7018L3.10569 9.735C1.73944 7.60973 2.32963 4.78152 4.43184 3.38005Z" fill="#2A2E33"/>
</svg>
