<svg width="18" height="21" viewBox="0 0 18 21" fill="none" xmlns="http://www.w3.org/2000/svg">
<path fill-rule="evenodd" clip-rule="evenodd" d="M10.0004 1.39578C10.0004 0.843498 9.55264 0.395782 9.00035 0.395782C8.44807 0.395782 8.00035 0.843498 8.00035 1.39578V1.96665C4.60823 2.45171 2.00035 5.36802 2.00035 8.89469L2.00035 12.8951C2.00035 12.8951 2.00036 12.8949 2.00035 12.8951C2.00025 12.897 1.99957 12.9104 1.99524 12.9366C1.99003 12.9681 1.98079 13.011 1.96553 13.0661C1.93461 13.1778 1.88539 13.3168 1.81662 13.4813C1.67876 13.8109 1.4844 14.1904 1.26944 14.5734C0.865295 15.2933 0.66158 16.1512 0.814518 16.967C0.975802 17.8274 1.52959 18.5777 2.47541 18.9378C3.32032 19.2595 4.44498 19.5537 5.93021 19.7288C5.96555 19.7594 6.00734 19.7945 6.05534 19.8329C6.20563 19.9531 6.42035 20.109 6.69171 20.264C7.23028 20.5718 8.02657 20.8958 9.00035 20.8958C9.97413 20.8958 10.7704 20.5718 11.309 20.264C11.5804 20.109 11.7951 19.9531 11.9454 19.8329C11.9934 19.7945 12.0352 19.7594 12.0705 19.7288C13.5557 19.5537 14.6804 19.2595 15.5253 18.9378C16.4711 18.5777 17.0249 17.8274 17.1862 16.967C17.3391 16.1512 17.1354 15.2933 16.7313 14.5734C16.5163 14.1904 16.3219 13.8109 16.1841 13.4813C16.1153 13.3168 16.0661 13.1778 16.0352 13.0661C16.0199 13.011 16.0107 12.9681 16.0055 12.9366C16.0011 12.9104 16.0005 12.8972 16.0004 12.8953C16.0004 12.8952 16.0004 12.8953 16.0004 12.8953L16.0004 12.8869V8.89516C16.0004 5.36858 13.3925 2.45179 10.0004 1.96666V1.39578ZM4.00035 8.89469C4.00035 6.1335 6.23869 3.89578 9.00035 3.89578C11.7619 3.89578 14.0004 6.13388 14.0004 8.89516V12.8958C14.0004 13.3587 14.1738 13.858 14.3389 14.2529C14.5183 14.6819 14.7534 15.1358 14.9873 15.5524C15.2146 15.9574 15.2689 16.3402 15.2204 16.5985C15.1803 16.8123 15.0735 16.9698 14.8136 17.0687C13.7387 17.478 11.9243 17.8958 9.00035 17.8958C6.07642 17.8958 4.26196 17.478 3.1871 17.0687C2.92724 16.9698 2.82036 16.8123 2.78028 16.5985C2.73185 16.3402 2.78606 15.9574 3.01344 15.5524C3.24729 15.1358 3.48238 14.6819 3.66177 14.2529C3.8269 13.858 4.00035 13.3587 4.00035 12.8958V8.89469Z" fill="black"/>
</svg>
