<svg width="54" height="49" viewBox="0 0 54 49" fill="none" xmlns="http://www.w3.org/2000/svg">
<path d="M37.2914 0.585122L40.3572 13.9561C40.4501 14.3616 40.1968 14.7658 39.7913 14.8587L31.9848 16.6488C31.5793 16.7416 31.1751 16.4884 31.0822 16.0828L28.0163 2.71191C27.9232 2.3061 28.1767 1.90218 28.5823 1.8093L36.3888 0.0192022C36.7943 -0.0736777 37.1985 0.179312 37.2914 0.585122Z" fill="#EE7D6E"/>
<path d="M32.9635 9.52787L25.0331 20.7213C24.7925 21.0606 24.3222 21.1408 23.9828 20.9005L17.4477 16.2706C17.1083 16.03 17.0281 15.5597 17.2684 15.2203L25.1989 4.02689C25.4394 3.68723 25.9098 3.60731 26.2492 3.84761L32.7842 8.47757C33.1236 8.71814 33.2041 9.18821 32.9635 9.52787Z" fill="#70A6E8"/>
<path d="M46.005 1.56603L51.4069 14.1756C51.5708 14.5579 51.3934 15.001 51.0111 15.1648L43.6492 18.3187C43.2669 18.4826 42.8238 18.3052 42.6602 17.9229L37.2583 5.31336C37.0944 4.93077 37.2718 4.48797 37.6542 4.32435L45.016 1.17048C45.3983 1.00659 45.8411 1.18371 46.005 1.5663V1.56603Z" fill="#BED359"/>
<path d="M53.4973 10.8918L53.4972 10.892L48.1216 34.1504C48.1113 34.1946 48.0719 34.2257 48.0271 34.2257H21.555C21.5099 34.2257 21.4708 34.1947 21.4605 34.1506C21.4605 34.1506 21.4605 34.1506 21.4605 34.1505L16.0848 10.892L16.0848 10.8917C16.0708 10.8316 16.1167 10.7734 16.179 10.7734H53.4031C53.4656 10.7734 53.5113 10.8312 53.4973 10.8918Z" fill="white" stroke="#1E2833"/>
<path d="M23.9625 48.2766C25.9988 48.2766 27.6496 46.6258 27.6496 44.5895C27.6496 42.5531 25.9988 40.9023 23.9625 40.9023C21.9262 40.9023 20.2754 42.5531 20.2754 44.5895C20.2754 46.6258 21.9262 48.2766 23.9625 48.2766Z" fill="#C5C5C5"/>
<path d="M23.9621 46.5161C25.0264 46.5161 25.8891 45.6533 25.8891 44.5891C25.8891 43.5249 25.0264 42.6621 23.9621 42.6621C22.8979 42.6621 22.0352 43.5249 22.0352 44.5891C22.0352 45.6533 22.8979 46.5161 23.9621 46.5161Z" fill="#EBEBEB"/>
<path d="M45.6959 48.2766C47.7323 48.2766 49.383 46.6258 49.383 44.5895C49.383 42.5531 47.7323 40.9023 45.6959 40.9023C43.6596 40.9023 42.0088 42.5531 42.0088 44.5895C42.0088 46.6258 43.6596 48.2766 45.6959 48.2766Z" fill="#C5C5C5"/>
<path d="M45.6955 46.5161C46.7598 46.5161 47.6225 45.6533 47.6225 44.5891C47.6225 43.5249 46.7598 42.6621 45.6955 42.6621C44.6313 42.6621 43.7686 43.5249 43.7686 44.5891C43.7686 45.6533 44.6313 46.5161 45.6955 46.5161Z" fill="#EBEBEB"/>
<path d="M18.7999 37.1166L12.2224 9.12891H1.896C0.850023 9.12891 0.00195312 9.97698 0.00195312 11.0232C0.00195312 12.0695 0.850023 12.9173 1.896 12.9173H9.29859L15.8761 40.9049H51.7998C52.8461 40.9049 53.6939 40.0569 53.6939 39.0109C53.6939 37.9646 52.8458 37.1168 51.7998 37.1168H18.7999V37.1166Z" fill="#C5C5C5"/>
</svg>
