<svg width="15" height="14" viewBox="0 0 15 14" fill="none" xmlns="http://www.w3.org/2000/svg">
<path d="M6.55733 5.11438C6.29698 4.85403 5.87487 4.85403 5.61452 5.11438C5.35417 5.37473 5.35417 5.79684 5.61452 6.05719L6.55733 7L5.61452 7.94281C5.35417 8.20316 5.35417 8.62527 5.61452 8.88562C5.87487 9.14597 6.29698 9.14597 6.55733 8.88562L7.50014 7.94281L8.44295 8.88562C8.7033 9.14597 9.12541 9.14597 9.38576 8.88562C9.64611 8.62527 9.64611 8.20316 9.38576 7.94281L8.44295 7L9.38576 6.05719C9.64611 5.79684 9.64611 5.37473 9.38576 5.11438C9.12541 4.85403 8.7033 4.85403 8.44295 5.11438L7.50014 6.05719L6.55733 5.11438Z" fill="#666666"/>
<path fill-rule="evenodd" clip-rule="evenodd" d="M7.50016 0.333334C3.81826 0.333334 0.833496 3.3181 0.833496 7C0.833496 10.6819 3.81826 13.6667 7.50016 13.6667C11.1821 13.6667 14.1668 10.6819 14.1668 7C14.1668 3.3181 11.1821 0.333334 7.50016 0.333334ZM2.16683 7C2.16683 4.05448 4.55464 1.66667 7.50016 1.66667C10.4457 1.66667 12.8335 4.05448 12.8335 7C12.8335 9.94552 10.4457 12.3333 7.50016 12.3333C4.55464 12.3333 2.16683 9.94552 2.16683 7Z" fill="#666666"/>
</svg>
