<svg width="20" height="18" viewBox="0 0 20 18" fill="none" xmlns="http://www.w3.org/2000/svg">
<path fill-rule="evenodd" clip-rule="evenodd" d="M11.9118 0.987525C10.764 0.184112 9.23642 0.184109 8.08868 0.987524L2.35737 4.99944C1.39185 5.6753 0.855001 6.81078 0.945392 7.98587L1.53291 15.6236C1.64371 17.064 2.94888 18.111 4.3791 17.9067L7.02044 17.5294C8.25207 17.3534 9.16689 16.2986 9.16689 15.0545V14C9.16689 13.5398 9.53998 13.1667 10.0002 13.1667C10.4605 13.1667 10.8336 13.5398 10.8336 14V15.0545C10.8336 16.2986 11.7484 17.3534 12.98 17.5294L15.6214 17.9067C17.0516 18.111 18.3567 17.064 18.4675 15.6236L19.0551 7.98587C19.1454 6.81078 18.6086 5.67531 17.6431 4.99944L11.9118 0.987525ZM9.04445 2.35291C9.61832 1.9512 10.3821 1.9512 10.956 2.35291L16.6873 6.36483C17.1701 6.70276 17.4385 7.2705 17.3933 7.85805L16.8058 15.4957C16.7688 15.9759 16.3338 16.3249 15.8571 16.2568L13.2157 15.8795C12.8052 15.8208 12.5002 15.4692 12.5002 15.0545V14C12.5002 12.6193 11.3809 11.5 10.0002 11.5C8.61951 11.5 7.50022 12.6193 7.50022 14V15.0545C7.50022 15.4692 7.19528 15.8208 6.78474 15.8795L4.1434 16.2568C3.66666 16.3249 3.2316 15.9759 3.19467 15.4957L2.60715 7.85804C2.56195 7.2705 2.83038 6.70276 3.31314 6.36483L9.04445 2.35291Z" fill="#EB5017"/>
</svg>
