<svg width="12" height="14" viewBox="0 0 12 14" fill="none" xmlns="http://www.w3.org/2000/svg">
<path fill-rule="evenodd" clip-rule="evenodd" d="M6.0001 2.66667C4.34325 2.66667 3.0001 4.00981 3.0001 5.66667C3.0001 7.32352 4.34325 8.66667 6.0001 8.66667C7.65696 8.66667 9.0001 7.32352 9.0001 5.66667C9.0001 4.00981 7.65696 2.66667 6.0001 2.66667ZM4.33344 5.66667C4.33344 4.74619 5.07963 4 6.0001 4C6.92058 4 7.66677 4.74619 7.66677 5.66667C7.66677 6.58714 6.92058 7.33333 6.0001 7.33333C5.07963 7.33333 4.33344 6.58714 4.33344 5.66667Z" fill="#475367"/>
<path fill-rule="evenodd" clip-rule="evenodd" d="M3.20626 1.39466C4.89808 0.266783 7.10213 0.266783 8.79394 1.39466C11.0812 2.9195 11.7234 5.99667 10.2368 8.30903L7.68246 12.2825C6.89519 13.5072 5.10502 13.5072 4.31775 12.2825L1.76337 8.30903C0.276854 5.99667 0.918999 2.9195 3.20626 1.39466ZM3.94586 2.50406C5.18981 1.67476 6.81039 1.67476 8.05434 2.50406C9.73611 3.62524 10.2083 5.8878 9.11526 7.58802L6.56089 11.5615C6.29846 11.9697 5.70174 11.9697 5.43932 11.5615L2.88494 7.58802C1.79194 5.8878 2.2641 3.62524 3.94586 2.50406Z" fill="#475367"/>
</svg>
