<svg width="24" height="25" viewBox="0 0 24 25" fill="none" xmlns="http://www.w3.org/2000/svg">
<path fill-rule="evenodd" clip-rule="evenodd" d="M19.0003 21.3958C21.2094 21.3958 23.0003 19.6049 23.0003 17.3958V8.41847C23.0006 8.40317 23.0006 8.38784 23.0003 8.37248V7.39578C23.0003 5.18664 21.2094 3.39578 19.0003 3.39578H5.00027C2.79113 3.39578 1.00027 5.18664 1.00027 7.39578V8.37249C0.999911 8.38784 0.999912 8.40317 1.00027 8.41846V17.3958C1.00027 19.6049 2.79113 21.3958 5.00027 21.3958H19.0003ZM3.00027 17.3958C3.00027 18.5004 3.8957 19.3958 5.00027 19.3958H19.0003C20.1048 19.3958 21.0003 18.5004 21.0003 17.3958V9.87282L13.4858 12.8786C12.5322 13.26 11.4683 13.26 10.5147 12.8786L3.00027 9.87282V17.3958ZM12.743 11.0216L21.0003 7.71875V7.39578C21.0003 6.29121 20.1048 5.39578 19.0003 5.39578H5.00027C3.8957 5.39578 3.00027 6.29121 3.00027 7.39578V7.71875L11.2575 11.0216C11.7343 11.2124 12.2662 11.2124 12.743 11.0216Z" fill="black"/>
</svg>
