<svg width="51" height="50" viewBox="0 0 51 50" fill="none" xmlns="http://www.w3.org/2000/svg">
<path d="M23.0778 49.9993C35.8233 49.9993 46.1556 39.667 46.1556 26.9215C46.1556 14.176 35.8233 3.84375 23.0778 3.84375C10.3323 3.84375 0 14.176 0 26.9215C0 39.667 10.3323 49.9993 23.0778 49.9993Z" fill="#EBEBEB"/>
<path d="M22.3585 19.2432L30.7609 27.6457C34.5149 31.3997 34.5149 37.4953 30.7609 41.2493L30.2059 41.8043L8.19982 19.7982L8.75481 19.2432C12.5089 15.4892 18.6044 15.4892 22.3585 19.2432Z" fill="#BED359"/>
<path d="M25.3543 22.6262L31.6917 28.9636C31.2781 28.2982 30.7829 27.6692 30.2052 27.0915L22.9128 19.7992C18.8498 15.7362 12.2622 15.7362 8.19922 19.7992L10.8359 22.4359C14.912 18.564 21.3558 18.6277 25.3543 22.6262Z" fill="white"/>
<g opacity="0.3">
<path opacity="0.3" d="M32.1462 29.7756C32.0199 32.2583 31.0091 34.7047 29.1127 36.6012L10.5467 18.0352C9.70452 18.4982 8.91291 19.086 8.19922 19.7997L30.2052 41.8056C33.4604 38.5504 34.107 33.6752 32.1462 29.7756Z" fill="#1E2833"/>
</g>
<path d="M41.3946 19.3267L30.6773 8.60938L23.8604 20.6821L29.3218 26.1436L41.3946 19.3267Z" fill="#BED359"/>
<path d="M41.3538 19.3499L41.3946 19.3267L30.6773 8.60938L23.8604 20.6821L25.7148 22.5366L32.5085 10.5047L41.3538 19.3499Z" fill="white"/>
<g opacity="0.3">
<path opacity="0.3" d="M41.3949 19.3267L30.6776 8.60938L30.6544 8.65021L38.9216 16.9174L26.8896 23.7111L29.3222 26.1436L41.3949 19.3267Z" fill="#1E2833"/>
</g>
<path d="M49.1114 20.1037L29.9002 0.892578L29.6979 1.09488C27.8937 2.89915 27.8937 5.82471 29.6979 7.62897L42.375 20.306C44.1792 22.1103 47.1048 22.1103 48.9091 20.306L49.1114 20.1037Z" fill="#BED359"/>
<path d="M32.7916 3.84811L49.0783 20.1348C49.0891 20.1243 49.1004 20.1142 49.1112 20.1033L29.9001 0.892578C27.9838 2.80886 27.9838 5.91537 29.9001 7.83165L32.357 10.2885C30.8895 8.36514 31.0338 5.60592 32.7916 3.84811Z" fill="white"/>
<g opacity="0.3">
<path opacity="0.3" d="M29.9006 0.892578C29.8897 0.903443 29.88 0.914682 29.8691 0.925546L45.9633 17.0197C44.2055 18.7775 41.4462 18.9213 39.5228 17.4543L42.1723 20.1037C44.0886 22.02 47.1951 22.02 49.1114 20.1037L29.9006 0.892578Z" fill="#1E2833"/>
</g>
<path d="M18.823 30.4861L19.5812 31.2443C19.9216 31.5847 19.9216 32.1373 19.5812 32.4777L5.04771 47.0112C4.57961 47.4793 3.81932 47.4793 3.35123 47.0112L3.23493 46.8949C2.66776 46.3277 2.66802 45.4072 3.23493 44.8403L17.5891 30.4861C17.9295 30.1457 18.4821 30.1457 18.8225 30.4861L18.823 30.4861Z" fill="white"/>
<g opacity="0.3">
<path opacity="0.3" d="M19.1701 30.8344L4.1677 45.8368C3.80617 46.1983 3.29704 46.3208 2.83398 46.2066C2.89318 46.4475 3.01568 46.6764 3.20375 46.8648C3.75372 47.4148 4.64537 47.4148 5.19571 46.8648L20.1985 31.862L19.1705 30.834L19.1701 30.8344Z" fill="#1E2833"/>
</g>
<path d="M29.9 0L29.1297 0.770259C28.1703 1.72971 27.6416 3.00536 27.6416 4.3623C27.6416 5.71925 28.1699 6.99489 29.1297 7.95434L29.8917 8.71636L23.6959 19.6892L22.5514 18.5447C20.6827 16.6759 18.1985 15.6468 15.5558 15.6468C12.9131 15.6468 10.4288 16.6759 8.56013 18.5447L7.30621 19.7986L17.3454 29.8378L2.66443 44.5191C2.30403 44.8796 2.10547 45.3587 2.10547 45.8686C2.10547 46.3785 2.30403 46.8576 2.66443 47.2181L2.85025 47.4039C3.21065 47.7643 3.68982 47.9628 4.1997 47.9628C4.70959 47.9628 5.18875 47.7643 5.54915 47.4039L20.2305 32.7225L30.2057 42.6977L31.4596 41.4437C33.3283 39.575 34.3574 37.0908 34.3574 34.4481C34.3574 31.8054 33.3283 29.3212 31.4596 27.4525L30.3151 26.3079L41.2879 20.1121L42.0499 20.8742C43.0401 21.8647 44.3412 22.3596 45.6419 22.3596C46.9427 22.3596 48.2438 21.8643 49.234 20.8742L50.0042 20.1039L29.9 0ZM4.65601 46.5111C4.53388 46.6332 4.37204 46.7003 4.19933 46.7003C4.02662 46.7003 3.86478 46.6332 3.74264 46.5111L3.55682 46.3253C3.43469 46.2032 3.36763 46.0413 3.36763 45.8686C3.36763 45.6959 3.43469 45.534 3.55682 45.4119L18.206 30.7628L19.3052 31.862L4.65601 46.5111ZM30.5664 40.551L30.2053 40.9121L9.09212 19.7986L9.45327 19.4374C12.8183 16.0724 18.294 16.0724 21.659 19.4374L30.5668 28.3448C33.9318 31.7099 33.9318 37.1856 30.5668 40.5506L30.5664 40.551ZM29.429 25.3582L24.646 20.5752L30.8186 9.64322L40.361 19.1857L29.429 25.3582ZM45.6416 21.0997C44.6218 21.0997 43.6631 20.7026 42.9423 19.9814L42.4287 19.4678L30.5361 7.57521L30.0225 7.06158C29.3013 6.3404 28.9045 5.3817 28.9045 4.3623C28.9045 3.4006 29.2578 2.49323 29.903 1.78815L48.2161 20.1013C47.511 20.7464 46.6036 21.0997 45.6419 21.0997H45.6416Z" fill="#1E2833"/>
</svg>
