<svg width="43" height="29" viewBox="0 0 43 29" fill="none" xmlns="http://www.w3.org/2000/svg">
<path d="M9.793 8.98512L2.19043 6.22055L38.821 0.691406C33.991 2.78971 26.6842 4.77376 9.793 8.98512Z" fill="#BED359"/>
<path d="M9.10186 27.646L14.631 13.8231C25.497 9.20314 31.2913 6.34939 40.8944 0.691406L25.6893 24.1903H24.9981L20.1601 18.6611L9.10186 27.646Z" fill="#BED359"/>
<path d="M14.6307 13.8231L9.10156 26.9548C10.248 20.5855 10.3217 16.072 9.79271 8.98512L40.8941 0.691406C31.3925 6.30691 25.6809 9.2246 14.6307 13.8231Z" fill="#EE7D6E"/>
<path d="M41.7545 9.19017e-06C41.6841 0.000440824 41.615 0.0190011 41.5542 0.054395C32.3893 5.335 23.3556 9.67551 14.3483 13.7786C14.3073 13.7968 14.2693 13.8214 14.2365 13.852C14.2223 13.8637 14.2089 13.8589 14.1946 13.8732C14.1523 13.9155 14.12 13.9664 14.0997 14.0221C12.5881 18.1852 10.922 22.5227 8.40298 27.8577C8.30716 28.0614 8.39478 28.3044 8.59851 28.4002C8.7457 28.4693 8.92008 28.4447 9.04223 28.3368C12.7176 25.0801 16.2656 21.6352 20.2129 19.073C22.002 20.8505 23.8231 22.9659 25.0886 25.093C25.2039 25.2864 25.4542 25.3503 25.6476 25.235C25.7232 25.1902 25.7823 25.1215 25.816 25.0404C26.0754 24.4124 27.1039 22.6034 28.5011 20.3196C29.8983 18.0358 31.6771 15.2358 33.493 12.4695C35.3089 9.70357 37.1619 6.97089 38.705 4.82265C39.4767 3.74875 40.1712 2.82074 40.7418 2.11113C41.3125 1.40152 41.7817 0.900397 42.0031 0.733355C42.1826 0.59739 42.2185 0.341431 42.0825 0.161872C42.0048 0.059143 41.8831 -0.000854077 41.7545 9.19017e-06ZM39.8648 1.92251C39.3244 2.60794 38.7291 3.39222 38.0433 4.34699C36.4894 6.50991 34.6321 9.24949 32.8119 12.0219C30.9917 14.7947 29.209 17.6003 27.8058 19.894C26.6438 21.7941 25.8557 23.1705 25.3955 24.0912C23.6755 21.403 21.257 18.8296 19.1291 16.9244C17.9874 15.9023 16.939 15.0727 16.1357 14.5176C15.8897 14.3479 15.7123 14.2547 15.5137 14.1377C23.5706 10.4546 31.6672 6.53106 39.8648 1.92207V1.92251ZM14.7437 14.6229C14.7523 14.6268 14.7523 14.6259 14.7614 14.6302C14.9725 14.7334 15.2901 14.9255 15.6721 15.1892C16.4353 15.7162 17.4651 16.5294 18.5852 17.5321C18.9163 17.8286 19.2642 18.1718 19.6069 18.499C16.1633 20.7607 13.0595 23.6307 9.94478 26.438C11.9627 22.0107 13.4328 18.2219 14.7437 14.6229Z" fill="#1E2833"/>
<path d="M41.6823 0.0177341C41.6676 0.0177341 41.6525 0.0194606 41.6378 0.0211872L0.609772 5.65401C0.386616 5.68509 0.230797 5.89141 0.262306 6.11413C0.286045 6.28506 0.415104 6.42275 0.584305 6.45728C4.07967 7.16516 7.15247 8.07893 9.30633 9.38764C9.87306 14.1848 9.74702 20.0956 8.32868 28.0683C8.2894 28.2902 8.43702 28.5017 8.65887 28.5414C8.88074 28.5811 9.09224 28.4331 9.13195 28.2112C10.5477 20.2536 10.6897 14.2966 10.1307 9.43253L41.8006 0.819278C42.0177 0.760144 42.1463 0.536126 42.0872 0.318583C42.0375 0.136865 41.8705 0.0125545 41.6823 0.0177341ZM35.4987 1.68773L9.73624 8.6953C7.92596 7.59334 5.5891 6.79438 2.95484 6.15557L35.4987 1.68773Z" fill="#1E2833"/>
</svg>
