<svg width="43" height="50" viewBox="0 0 43 50" fill="none" xmlns="http://www.w3.org/2000/svg">
<ellipse cx="21.7394" cy="29.3478" rx="20.6525" ry="20.6525" fill="#1E2833"/>
<circle cx="19.5655" cy="29.3468" r="19.3422" fill="#D6EE60" stroke="#1E2833" stroke-width="0.44665"/>
<ellipse cx="20.6524" cy="29.8902" rx="18.4786" ry="17.9351" fill="#BED359"/>
<circle cx="19.5655" cy="29.3468" r="19.3422" stroke="#1E2833" stroke-width="0.44665"/>
<circle cx="19.5652" cy="29.3475" r="13.9073" fill="white" stroke="#1E2833" stroke-width="0.44665"/>
<ellipse cx="19.7408" cy="29.5221" rx="1.26229" ry="1.26229" fill="#1E2833"/>
<path d="M19.7888 20.2598C19.7888 20.1364 19.6888 20.0364 19.5654 20.0364C19.4421 20.0364 19.3421 20.1364 19.3421 20.2598L19.7888 20.2598ZM19.3421 29.3483L19.3421 29.5716L19.7888 29.5716L19.7888 29.3483L19.3421 29.3483ZM19.3421 20.2598L19.3421 29.3483L19.7888 29.3483L19.7888 20.2598L19.3421 20.2598Z" fill="#1E2833"/>
<path d="M20.4355 29.1243H20.2122V29.571H20.4355V29.1243ZM28.2618 29.571C28.3851 29.571 28.4851 29.471 28.4851 29.3477C28.4851 29.2243 28.3851 29.1243 28.2618 29.1243V29.571ZM20.4355 29.571H28.2618V29.1243H20.4355V29.571Z" fill="#1E2833"/>
<path d="M36.4141 39.6739L38.0445 35.8695L38.588 34.239L39.1315 32.0651V29.3477" stroke="#1E2833" stroke-width="0.384615"/>
<path d="M9.04032 7.86664L9.91821 10.7704C10.0715 11.275 10.4669 11.6697 10.972 11.8222L13.8768 12.7014C14.0662 12.7586 14.1732 12.9585 14.1161 13.1477C14.0814 13.2624 13.9917 13.3523 13.8768 13.387L10.972 14.2661C10.4669 14.4186 10.0715 14.8133 9.91821 15.3179L9.04032 18.2217C8.98449 18.4114 8.78551 18.5201 8.59557 18.4643C8.47857 18.4299 8.38723 18.3385 8.35286 18.2217L7.47336 15.3179C7.32118 14.8132 6.92613 14.4183 6.42119 14.2661L3.51641 13.387C3.32696 13.3297 3.21997 13.1298 3.27709 12.9406C3.31179 12.8259 3.40151 12.736 3.51641 12.7014L6.42119 11.8222C6.92613 11.67 7.32118 11.2751 7.47336 10.7704L8.35286 7.86664C8.4087 7.67692 8.60767 7.5682 8.79761 7.62401C8.91445 7.65821 9.00595 7.74968 9.04032 7.86664Z" fill="#EE7D6E"/>
<path d="M14.8744 0.473083L15.4357 2.3297C15.5337 2.65234 15.7865 2.90474 16.1094 3.00221L17.9666 3.56435C18.0878 3.60097 18.1562 3.72877 18.1196 3.84976C18.0975 3.92309 18.0401 3.98054 17.9666 4.00272L16.1094 4.56486C15.7865 4.66233 15.5337 4.91473 15.4357 5.23737L14.8744 7.09399C14.8387 7.21529 14.7114 7.28481 14.59 7.24912C14.5152 7.22715 14.4568 7.16867 14.4348 7.09399L13.8725 5.23737C13.7752 4.91463 13.5226 4.66213 13.1998 4.56486L11.3425 4.00272C11.2214 3.9661 11.153 3.83831 11.1895 3.71732C11.2117 3.64398 11.2691 3.58653 11.3425 3.56435L13.1998 3.00221C13.5226 2.90494 13.7752 2.65244 13.8725 2.3297L14.4348 0.473083C14.4705 0.351784 14.5977 0.282264 14.7192 0.317952C14.7939 0.339819 14.8524 0.398303 14.8744 0.473083Z" fill="white"/>
<path d="M14.6554 7.5691C14.6044 7.5691 14.5532 7.56178 14.5028 7.54703C14.3262 7.49515 14.1898 7.35879 14.1379 7.1822L13.5763 5.32806C13.5086 5.10372 13.3345 4.92971 13.1104 4.86215L11.253 4.2998C11.1154 4.25824 11.0021 4.16551 10.9342 4.03874C10.8663 3.91198 10.8518 3.76634 10.8934 3.62864C10.9456 3.45587 11.0801 3.32137 11.2531 3.26907L13.1102 2.70693C13.3346 2.63927 13.5087 2.46526 13.5763 2.24123L14.1387 0.384301C14.2216 0.101889 14.5216 -0.0617 14.8065 0.0218478C14.9827 0.0736268 15.1188 0.209366 15.171 0.385332L15.732 2.24102C15.8 2.46485 15.9747 2.63906 16.199 2.70683L18.0564 3.26897C18.1939 3.31054 18.3072 3.40326 18.3751 3.53003C18.4431 3.6568 18.4576 3.80244 18.416 3.94014C18.3638 4.11291 18.2293 4.24741 18.0563 4.2997L16.1992 4.86184C15.9747 4.92961 15.8 5.10393 15.7319 5.32816L15.1708 7.18447C15.131 7.32011 15.0391 7.43408 14.9128 7.50299C14.8325 7.54682 14.7445 7.5691 14.6554 7.5691ZM14.5778 7.00665C14.5777 7.00706 14.5776 7.00748 14.5775 7.00789L14.5778 7.00665ZM14.7308 7.00417L14.7311 7.00531C14.731 7.0049 14.7309 7.00448 14.7308 7.00417ZM11.6866 3.78449L13.2895 4.26969C13.7125 4.39717 14.0413 4.7259 14.1689 5.149L14.6547 6.7525L15.1395 5.14879C15.2681 4.7258 15.5972 4.39728 16.0202 4.26958L17.6228 3.78449L16.02 3.29929C15.5972 3.1717 15.2681 2.84318 15.1396 2.4206L14.6547 0.81648L14.1689 2.42029C14.0414 2.84308 13.7126 3.17181 13.2893 3.2994L11.6866 3.78449ZM17.8771 3.86144H17.8781H17.8771ZM14.732 0.561298L14.7316 0.562536C14.7317 0.562124 14.7318 0.561711 14.732 0.561298Z" fill="#1E2833"/>
</svg>
