<svg width="20" height="20" viewBox="0 0 20 20" fill="none" xmlns="http://www.w3.org/2000/svg">
<path fill-rule="evenodd" clip-rule="evenodd" d="M10.8333 1.66732C10.8333 1.20708 10.4602 0.833984 10 0.833984C9.53976 0.833984 9.16667 1.20708 9.16667 1.66732V2.50065C6.86548 2.50065 5 4.36613 5 6.66732C5 8.9685 6.86548 10.834 9.16667 10.834V15.834C7.78595 15.834 6.66667 14.7147 6.66667 13.334C6.66667 12.8737 6.29357 12.5007 5.83333 12.5007C5.3731 12.5007 5 12.8737 5 13.334C5 15.6352 6.86548 17.5006 9.16667 17.5006V18.334C9.16667 18.7942 9.53976 19.1673 10 19.1673C10.4602 19.1673 10.8333 18.7942 10.8333 18.334V17.5006C13.1345 17.5006 15 15.6352 15 13.334C15 11.0328 13.1345 9.16732 10.8333 9.16732V4.16732C12.214 4.16732 13.3333 5.28661 13.3333 6.66732C13.3333 7.12755 13.7064 7.50065 14.1667 7.50065C14.6269 7.50065 15 7.12755 15 6.66732C15 4.36613 13.1345 2.50065 10.8333 2.50065V1.66732ZM9.16667 4.16732C7.78595 4.16732 6.66667 5.28661 6.66667 6.66732C6.66667 8.04803 7.78595 9.16732 9.16667 9.16732V4.16732ZM10.8333 10.834V15.834C12.214 15.834 13.3333 14.7147 13.3333 13.334C13.3333 11.9533 12.214 10.834 10.8333 10.834Z" fill="black"/>
</svg>
