<svg width="20" height="20" viewBox="0 0 20 20" fill="none" xmlns="http://www.w3.org/2000/svg">
<path fill-rule="evenodd" clip-rule="evenodd" d="M6.66667 2.49935V4.27103C8.10436 4.64107 9.16667 5.94615 9.16667 7.49935C9.16667 9.05255 8.10436 10.3576 6.66667 10.7277V17.4993C6.66667 17.9596 6.29357 18.3327 5.83333 18.3327C5.3731 18.3327 5 17.9596 5 17.4993L5 10.7277C3.56231 10.3576 2.5 9.05255 2.5 7.49935C2.5 5.94615 3.56231 4.64107 5 4.27103L5 2.49935C5 2.03911 5.3731 1.66602 5.83333 1.66602C6.29357 1.66602 6.66667 2.03911 6.66667 2.49935ZM4.16667 7.49935C4.16667 6.57887 4.91286 5.83268 5.83333 5.83268C6.75381 5.83268 7.5 6.57887 7.5 7.49935C7.5 8.41982 6.75381 9.16602 5.83333 9.16602C4.91286 9.16602 4.16667 8.41982 4.16667 7.49935Z" fill="black"/>
<path fill-rule="evenodd" clip-rule="evenodd" d="M13.3333 15.7277V17.4993C13.3333 17.9596 13.7064 18.3327 14.1667 18.3327C14.6269 18.3327 15 17.9596 15 17.4993V15.7277C16.4377 15.3576 17.5 14.0525 17.5 12.4993C17.5 10.9461 16.4377 9.64107 15 9.27103V2.49935C15 2.03911 14.6269 1.66602 14.1667 1.66602C13.7064 1.66602 13.3333 2.03911 13.3333 2.49935V9.27103C11.8956 9.64107 10.8333 10.9461 10.8333 12.4993C10.8333 14.0525 11.8956 15.3576 13.3333 15.7277ZM15.8333 12.4993C15.8333 11.5789 15.0871 10.8327 14.1667 10.8327C13.2462 10.8327 12.5 11.5789 12.5 12.4993C12.5 13.4198 13.2462 14.166 14.1667 14.166C15.0871 14.166 15.8333 13.4198 15.8333 12.4993Z" fill="black"/>
</svg>
